<svg viewBox="0 0 347 454" fill="none" xmlns="http://www.w3.org/2000/svg">
<path d="M217.354 6.46564C144.079 1.48867 4.0844 -7.13557 1.52494 30.5466C1.05382 37.4828 25.3785 43.3649 40.0656 47.1067C69.8794 54.7023 99.3284 61.5994 131.222 67.6663C218.479 84.2649 300.433 104.615 337.421 139.942C355.099 156.827 340.381 183.377 294.644 187.91C254.085 191.931 208.64 191.004 167.272 194.425C126.294 197.814 76.3889 200.816 47.6733 211.952C22.031 221.896 5.79901 239.145 21.5712 254.507C47.3569 279.622 113.587 298.316 155.039 320.459C187.438 337.766 218.021 354.31 220.869 374.314C222.087 382.869 219.807 390.964 211.734 398.492C192.326 416.591 169.211 433.93 150.065 452.095" stroke="white" stroke-width="3" stroke-linecap="round"/>
</svg>
